The One Warrior (2011) DVD R5 Rip DivX AC3-WDR


Information:


The One Warrior (2011)
Genres: Fantasy | Adventure   
Year: 2011
Country: USA
Language: English 
Subtitles: No 
Runtime: 87  min 
Director: Tom Stout
Writers: David A. Prior


Cast: 


Eric Alexander ... Ghost 4
An Ngo Ang ... Samurai 4
Elizabeth A. Barron ... Villager
Patrick H. Benezueutton ... Ghost #1
Jonathan A. Bryce ... Guard #5
Chase Byrd ... Villager
Brittni Rerenee Campbell ... Villager
Chance Caruthers ... Villager
Mellissa Cowley ... Lanterna
Jeff Curran ... Cave Dweller #1
Sodric Dira ... Samurai 2
Rebecca Doswell ... Villager
Jason David Frank ... One Warrior
Keone Fuqua ... Guard #1 / Death
Gerald L. Grant II ... Guard #9 


Plot:


The One Warrior is a fantasy/action piece that is loosely based on video 
adventure games. In our story, the character of The One Warrior finds himself 
in a mythical world where he must destroy the Evil Lord Shoukata, but to do so 
he must first fight his way through many challenges.


IMDB:

 
http://www.imdb.com/title/tt1623772/ 


Details:


Video
ID                                       : 0
Format                                   : MPEG-4 Visual
Format profile                           : Simple@L1
Format settings, BVOP                    : No
Format settings, QPel                    : No
Format settings, GMC                     : No warppoints
Format settings, Matrix                  : Default (H.263)
Codec ID                                 : DX50
Codec ID/Hint                            : DivX 5
Duration                                 : 1h 26mn
Bit rate                                 : 1 797 Kbps
Width                                    : 720 pixels
Height                                   : 404 pixels
Display aspect ratio                     : 16:9
Frame rate                               : 25.000 fps
Color space                              : YUV
Chroma subsampling                       : 4:2:0
Bit depth                                : 8 bits
Scan type                                : Progressive
Compression mode                         : Lossy
Bits/(Pixel*Frame)                       : 0.247
Stream size                              : 1.09 GiB (87%)
Writing library                          : DigiArty AV Encoder Core

Audio
ID                                       : 1
Format                                   : AC-3
Format/Info                              : Audio Coding 3
Mode extension                           : CM (complete main)
Codec ID                                 : 2000
Duration                                 : 1h 26mn
Bit rate mode                            : Constant
Bit rate                                 : 256 Kbps
Channel(s)                               : 6 channels
Channel positions                        : Front: L C R, Side: L R, LFE
Sampling rate                            : 48.0 KHz
Bit depth                                : 16 bits
Compression mode                         : Lossy
Stream size                              : 158 MiB (12%)
Alignment                                : Split accross interleaves
Interleave, duration                     : 500 ms (12.50 video frames)
Interleave, preload duration             : 500 ms


Poster:


 
http://i.imgur.com/2xxLt.jpg


Screens:

 
http://i.imgur.com/3Bil4.png

 
http://i.imgur.com/AXn80.png

 
http://i.imgur.com/nNFMR.png


ENJOY!